# xmcd CD database file
#
# Track frame offsets:
#	150
#	21110
#	36407
#	56275
#	74020
#	89960
#	107545
#	119137
#	133165
#	147350
#	161515
#	174850
#	190340
#	203950
#	219410
#	235855
#	256130
#	273647
#	292625
#	318070
#
# Disc length: 4350 seconds
#
# Revision: 4
# Processed by: cddbd v1.4PL0 Copyright (c) Steve Scherf et al.
# Submitted via: CDex 1.40Beta8
#
DISCID=2e10fc14
DTITLE=The Nitty Gritty Dirt Band - will the circle be unbroken volume two
DYEAR=1989
DGENRE=Country
TTITLE0=LIFES RAILWAY TO HEAVEN
TTITLE1=GRANDPA WAS A CARPENTER
TTITLE2=WHEN I GET MY REWARDS
TTITLE3=DONT YOU HEAR JERSALEM MOAN
TTITLE4=LITTLE MOUNTAIN CHURCH HOUSE
TTITLE5=AND SO IT GOES
TTITLE6=WHEN ITS GONE
TTITLE7=MARY DANCED WITH SOLDIERS
TTITLE8=RIDING ALONE
TTITLE9=IM SITTIN ON TOP OF THE WORLD
TTITLE10=LOVIN ON THE SIDE
TTITLE11=LOST RIVER
TTITLE12=BAYOU JUBILEE
TTITLE13=BLUES BERRY HILL
TTITLE14=TURN OF THE CENTURY
TTITLE15=ONE STEP OVER THE LINE
TTITLE16=YOU AINT GOING NOWHERE
TTITLE17=THE VALLEY ROAD
TTITLE18=WILL THE CIRCLE BE UNBROKEN
TTITLE19=AMAZING GRACE
EXTD=YEAR: 1989 ID3G: 2
EXTT0=Johnny Cash and the Carter Family
EXTT1=John Prine
EXTT2=Levon Helm
EXTT3=Nitty Gritty Dirt Band
EXTT4=Nitty Gritty Dirt Band
EXTT5=John Denver
EXTT6=Nitty Gritty Dirt Band
EXTT7=Emmylou Harris
EXTT8=Emmylou Harris
EXTT9=Nitty Gritty Dirt Band
EXTT10=Nitty Gritty Dirt Band
EXTT11=Michael Martin Murphy
EXTT12=Bruce Hornsby
EXTT13=Nitty Gritty Dirt Band
EXTT14=Nitty Gritty Dirt Band
EXTT15=John Hiatt and Rosanne Cash
EXTT16=Roger McGuinn and Chris Hillman
EXTT17=Bruce Hornsby
EXTT18=Everybody!
EXTT19=Randy Scruggs
PLAYORDER=
